<?xml version="1.0" encoding="utf-8"?>
<!-- Generator: Adobe Illustrator 22.0.1, SVG Export Plug-In . SVG Version: 6.00 Build 0)  -->
<svg version="1.1" id="Layer_1" xmlns="http://www.w3.org/2000/svg" xmlns:xlink="http://www.w3.org/1999/xlink" x="0px" y="0px"
	 viewBox="0 0 512 512" style="enable-background:new 0 0 512 512;" xml:space="preserve">
<style type="text/css">
	.st0{fill:#35216D;}
	.st1{fill:#EDF3FC;}
	.st2{fill:#330D84;}
	.st3{fill:#FFBE1B;}
	.st4{fill:#0061F3;}
	.st5{fill:#8C7BFD;}
	.st6{fill:#FFFFFF;}
	.st7{fill:#5932AE;}
	.st8{fill:#1C46C4;}
	.st9{fill:#6857E5;}
	.st10{fill:#5D8EF9;}
	.st11{fill:#8AC9F9;}
	.st12{fill:#FFE37B;}
	.st13{fill:#FFD000;}
	.st14{fill:#2EF39E;}
	.st15{fill:#330D84;stroke:#330D84;stroke-width:0.6306;stroke-linecap:round;stroke-linejoin:round;stroke-miterlimit:10;}
	.st16{fill:#FFFFFF;stroke:#FFFFFF;stroke-width:0.737;stroke-linecap:round;stroke-linejoin:round;stroke-miterlimit:10;}
	.st17{fill:none;}
	.st18{fill:#FDB813;}
</style>
<g>
	<g>
		<g>
			<path class="st1" d="M255.999,40.928c-118.778,0-215.071,96.294-215.071,215.074c0,118.776,96.292,215.068,215.071,215.068
				S471.07,374.778,471.07,256.002C471.07,137.222,374.777,40.928,255.999,40.928z"/>
		</g>
	</g>
	<g>
		<g>
			<path class="st1" d="M255.999,1C115.391,1,1,115.392,1,256.002C1,396.609,115.391,511,255.999,511S511,396.609,511,256.002
				C511,115.392,396.607,1,255.999,1z M255.999,502.831c-136.103,0-246.83-110.727-246.83-246.829
				c0-136.104,110.727-246.834,246.83-246.834c136.102,0,246.832,110.729,246.832,246.834
				C502.831,392.104,392.101,502.831,255.999,502.831z"/>
		</g>
	</g>
	<path class="st10" d="M430.053,353.962l2.169,0.517l-2.169,0.519c-12.683,3.044-22.582,12.531-25.769,24.678l-0.543,2.074
		l-0.538-2.074c-3.183-12.146-13.088-21.634-25.775-24.678l-2.16-0.519l2.16-0.517c12.688-3.045,22.592-12.535,25.775-24.678
		l0.538-2.076l0.543,2.076C407.471,341.427,417.37,350.917,430.053,353.962L430.053,353.962z"/>
	<path class="st2" d="M394.719,132.701l1.523,0.379l-1.523,0.38c-8.895,2.229-15.84,9.177-18.074,18.074l-0.38,1.518l-0.379-1.518
		c-2.232-8.898-9.18-15.846-18.079-18.074l-1.515-0.38l1.515-0.379c8.899-2.23,15.847-9.181,18.079-18.076l0.379-1.519l0.38,1.519
		C378.879,123.52,385.824,130.471,394.719,132.701L394.719,132.701z"/>
	<path class="st3" d="M109.958,219.568l2.042,0.508l-2.042,0.51c-11.93,2.989-21.244,12.308-24.24,24.241l-0.51,2.037l-0.508-2.037
		c-2.993-11.933-12.311-21.252-24.246-24.241l-2.031-0.51l2.031-0.508c11.935-2.991,21.253-12.314,24.246-24.243l0.508-2.037
		l0.51,2.037C88.714,207.254,98.028,216.577,109.958,219.568L109.958,219.568z"/>
	<path class="st3" d="M129.291,172.709l1.351,0.336l-1.351,0.337c-7.889,1.976-14.049,8.139-16.03,16.03l-0.337,1.347l-0.336-1.347
		c-1.979-7.891-8.141-14.054-16.034-16.03l-1.343-0.337l1.343-0.336c7.893-1.978,14.055-8.143,16.034-16.031l0.336-1.347
		l0.337,1.347C115.243,164.566,121.402,170.731,129.291,172.709L129.291,172.709z"/>
	<circle class="st10" cx="256" cy="256" r="140"/>
	<path class="st2" d="M345.895,363.342c-5.072-5.987-12.228-7.676-18.895-5.176c-8.739,3.277-13.333,19.833-27,21.167
		c-7.854,0.766-13.333-14.333-20.833-17.167c-5.012-1.893-10.667,5.5-19.167,3.083c-6.94-1.973-10.248-15.067-22.5-12.5
		c-11.63,2.436-12.623,9.038-18.5,23.25c-2.309,5.583-2.097,10.709-1.139,14.699C263.672,403.717,311.333,392.23,345.895,363.342z"
		/>
	<path class="st2" d="M225.857,162.533c-10.306-7.405-14.084-1.494-26.77-7.584c-4.621-2.219-12.473-8.482-20.589-15.548
		c-24.344,16.154-43.857,40.035-54.402,69.68c-0.483,1.357-0.936,2.717-1.374,4.078c1.961,0.443,3.566,0.857,4.527,1.47
		c7.522,4.799,7.16,24.926,15.044,36.56c7.884,11.634-7.895,25.941-1.055,37.41c5.145,8.629,20.17,11.673,26.053,25.649
		c5.828,13.844,0.71,30.533,13.705,32.808c5.617,0.983,3.345-11.904,6.897-23.941c2.255-7.643,7.713-12.848,9.75-19.922
		c2.037-7.075,0.654-16.019-0.934-19.447c-5.676-12.255-24.586-9.449-31.743-12.153c-7.157-2.704-6.903-10.251-2.926-14.711
		c3.977-4.46,11.66-14.829,15.787-25.15c4.127-10.321,1.311-26.192,7.824-31.509c3.014-2.46,14.191-0.539,19.922,7.588
		c6.654,9.436,2.547,23.276,12.738,25.885c8.565,2.193,16.682-5.657,21.202-13.182c3.956-6.585,5.402-19.591,1.538-32.192
		C237.355,176.264,230.897,166.154,225.857,162.533z"/>
	<path class="st2" d="M370.638,203.484c3.822-2.247,7.864-5.08,11.635-7.932c-15.413-32.199-43.064-58.548-79.354-71.456
		c-5.596-1.991-11.236-3.6-16.889-4.849c-1.111,4.512-1.901,9.625-1.741,14.755c0.387,12.358,9.322,24.701,6.568,29.854
		c-6.105,11.422-15.088,5.043-21.704,11.326c-13.147,12.486-12.85,30.745-5.471,39.516c7.379,8.771,27.794,13.594,36.218,26.299
		c8.424,12.705,19.77,43.045,30.042,48.535c10.271,5.49,30.112-12.062,23.108-47.748c-3.538-18.028-1.528-26.331,2.808-31.719
		C358.853,206.342,365.041,206.775,370.638,203.484z"/>
</g>
</svg>
